<?xml version="1.0" encoding="UTF-8" standalone="no"?>
<!-- Created with Inkscape (http://www.inkscape.org/) -->

<svg
   xmlns:dc="http://purl.org/dc/elements/1.1/"
   xmlns:cc="http://creativecommons.org/ns#"
   xmlns:rdf="http://www.w3.org/1999/02/22-rdf-syntax-ns#"
   xmlns:svg="http://www.w3.org/2000/svg"
   xmlns="http://www.w3.org/2000/svg"
   xmlns:sodipodi="http://sodipodi.sourceforge.net/DTD/sodipodi-0.dtd"
   xmlns:inkscape="http://www.inkscape.org/namespaces/inkscape"
   version="1.1"
   id="svg1070"
   width="406.38306"
   height="464.80469"
   viewBox="0 0 406.38306 464.80469"
   sodipodi:docname="bash-logo.svg"
   inkscape:version="0.92.5 (2060ec1f9f, 2020-04-08)">
  <metadata
     id="metadata1076">
    <rdf:RDF>
      <cc:Work
         rdf:about="">
        <dc:format>image/svg+xml</dc:format>
        <dc:type
           rdf:resource="http://purl.org/dc/dcmitype/StillImage" />
        <dc:title></dc:title>
      </cc:Work>
    </rdf:RDF>
  </metadata>
  <defs
     id="defs1074" />
  <sodipodi:namedview
     pagecolor="#ffffff"
     bordercolor="#666666"
     borderopacity="1"
     objecttolerance="10"
     gridtolerance="10"
     guidetolerance="10"
     inkscape:pageopacity="0"
     inkscape:pageshadow="2"
     inkscape:window-width="640"
     inkscape:window-height="480"
     id="namedview1072"
     showgrid="false"
     inkscape:zoom="0.57866746"
     inkscape:cx="1092.678"
     inkscape:cy="103.87106"
     inkscape:current-layer="svg1070"
     fit-margin-top="0"
     fit-margin-left="0"
     fit-margin-right="0"
     fit-margin-bottom="0" />
  <path
     style="fill:#ffffff;stroke:#000000;stroke-width:1px;stroke-linecap:butt;stroke-linejoin:miter;stroke-opacity:1;fill-opacity:1"
     d="M 196.73508,460.52784 34.214797,368.27008 14.052506,348.71877 4.8878282,324.27963 6.7207637,131.82139 17.107399,112.88106 43.379475,94.551704 186.34845,7.1817748 l 10.53938,0.6109786 20.62052,1.0692124 9.31743,2.5966582 157.89431,96.059686 11.01669,9.5046 4.7523,15.55297 2.59216,14.04088 -1.94412,182.74745 -1.94412,11.88074 -188.3638,116.86332 z"
     id="path1268"
     inkscape:connector-curvature="0" />
  <path
     style="fill:#4da925;fill-opacity:1"
     d="m 339.0504,334.10235 c -13.2437,7.24963 -25.9729,15.42618 -38.9707,23.11133 0.6745,4.48769 -2.3984,10.94019 1.4551,14.50586 5.5102,-0.3573 10.0624,-5.25781 15.0966,-7.45518 8.6608,-5.13929 17.2575,-10.38605 25.8897,-15.57412 -0.7143,-4.62024 1.3786,-10.42657 -1.5898,-14.47266 -0.6266,-0.0627 -1.2839,-0.69171 -1.8809,-0.11523 z"
     id="path1183"
     inkscape:connector-curvature="0" />
  <path
     inkscape:connector-curvature="0"
     id="path1175"
     d="m 189.641,462.29986 c -2.9592,-0.79589 -7.6154,-2.56965 -10.347,-3.94169 -2.7317,-1.37203 -38.5605,-22.40374 -79.6196,-46.73711 C 31.9751,371.4996 24.359,366.72652 17.9094,360.37855 12.9877,355.53437 9.6736,351.14683 7.1486,346.13212 0.3228,332.57586 0.5526,336.51926 0.5362,232.67777 c -0.01,-64.61259 0.3284,-95.34585 1.0906,-99 0.608,-2.91457 2.8478,-9.0524 4.9775,-13.63962 3.0743,-6.6219 5.3706,-9.81559 11.1447,-15.5 6.658,-6.554664 13.5802,-10.897834 81.9254,-51.402104 41.0591,-24.33338 76.8723,-45.357249 79.5849,-46.719712 14.6143,-7.340329 32.9101,-7.340329 47.5243,0 2.7126,1.362463 38.5258,22.386332 79.5849,46.719712 69.7479,41.33552 75.152,44.73529 82.2484,51.742504 5.3999,5.33204 8.4997,9.40439 10.7239,14.0882 6.3242,13.31831 6.1496,10.11589 6.1659,113.11258 0.01,64.61259 -0.3284,95.34585 -1.0906,99 -0.6079,2.91457 -2.8478,9.0524 -4.9775,13.63962 -3.0743,6.6219 -5.3706,9.81559 -11.1446,15.5 -6.6581,6.55466 -13.5803,10.89783 -81.9255,51.40211 -41.0591,24.33337 -76.8723,45.35724 -79.5849,46.71971 -10.8025,5.4258 -25.7608,7.02023 -37.1426,3.95909 z m 20.2085,-9.08266 c 0.3637,-0.36374 -0.8632,-1.69727 -2.7264,-2.96339 -1.8633,-1.26612 -4.4484,-4.45602 -5.7447,-7.08865 l -2.3569,-4.78661 -0.3029,-90.5 c -0.3209,-95.88567 -0.2328,-98.04934 4.3605,-107.11379 2.7465,-5.41993 9.9758,-13.13097 16.4424,-17.53803 12.3047,-8.38587 149.959,-93.18122 152.8992,-94.18624 7.7646,-2.65415 16.2681,-0.54445 20.2296,5.01892 1.1491,1.61386 2.2877,2.73591 2.5302,2.49344 0.8437,-0.84366 -3.8335,-13.20389 -6.688,-17.6743 -6.2524,-9.79168 -10.3811,-12.54166 -87.471,-58.260984 -41.25,-24.46392 -76.4447,-45.21551 -78.2105,-46.11465 -10.0231,-5.10393 -25.4632,-5.66291 -36.1898,-1.31017 -3.0799,1.24977 -39.5747,22.43912 -81.0997,47.08744 -56.9091,33.77996 -76.8065,46.081204 -80.8058,49.956754 -5.8775,5.69568 -9.9935,12.32096 -12.8235,20.64161 -1.7765,5.22279 -1.8707,10.33855 -1.8707,101.5 v 96 l 2.2546,5.92009 c 1.2401,3.25605 3.3431,7.75605 4.6735,10 5.8446,9.85841 10.1154,12.72159 89.0719,59.7149 46.4302,27.63434 78.529,46.12461 82.5,47.52353 6.3013,2.21987 19.7304,3.27775 21.328,1.68013 z m 49.6784,-68.34192 c 5.3139,-2.71097 6.3717,-5.04477 5.6738,-12.51849 -0.5762,-6.16976 -0.5741,-6.17603 3.4245,-10.07592 8.9915,-8.76953 13.8953,-20.33779 13.8953,-32.77952 0,-14.045 -5.0897,-19.16365 -20.4467,-20.56339 -4.6784,-0.4264 -9.1917,-1.34431 -10.0297,-2.03979 -0.8546,-0.70929 -1.5236,-2.86413 -1.5236,-4.90767 0,-8.75802 8.1449,-15.95169 19.2656,-17.01555 l 6.2344,-0.5964 1.958,-7.70866 c 1.0769,-4.23977 1.613,-8.05364 1.1914,-8.47527 -1.0001,-1.00005 -8.3872,-1.02925 -11.8994,-0.047 l -2.75,0.76905 v -6.55043 c 0,-8.01603 -1.2097,-8.82053 -7.2113,-4.79589 l -4.2887,2.87602 -0.298,7.42015 c -0.2965,7.38659 -0.3205,7.44407 -5.2985,12.70758 -2.7504,2.90808 -6.3195,8.1057 -7.9314,11.55028 -9.5097,20.32178 -3.9159,36.73476 12.5279,36.75821 11.3555,0.0162 16.2236,3.56416 15.2144,11.08859 -0.7549,5.62776 -4.8015,11.2865 -10.442,14.60211 -4.0041,2.35362 -5.8638,2.79619 -11.5508,2.74882 l -6.7783,-0.0565 -1.4025,5.05646 c -2.8347,10.22004 -2.8728,11.30845 -0.441,12.6099 2.2075,1.18141 10.5486,0.84066 14.1502,-0.57807 1.5596,-0.61436 1.75,0.0293 1.75,5.91764 0,7.53686 0.5494,7.89785 7.0064,4.60372 z m 63.7159,-26.18508 18.2777,-11.08045 v -5.80658 c 0,-3.19362 -0.3375,-6.01271 -0.75,-6.26464 -0.9995,-0.6104 -37.4013,20.89901 -39,23.04465 -1.3228,1.77525 -1.7349,10.47716 -0.5523,11.6598 1.0562,1.05616 2.3142,0.39631 22.0246,-11.55278 z"
     style="fill:#2a3238;fill-opacity:1" />
</svg>
