<?xml version="1.0" encoding="UTF-8" standalone="no"?>
<!-- Created with Inkscape (http://www.inkscape.org/) -->

<svg
   xmlns:dc="http://purl.org/dc/elements/1.1/"
   xmlns:cc="http://creativecommons.org/ns#"
   xmlns:rdf="http://www.w3.org/1999/02/22-rdf-syntax-ns#"
   xmlns:svg="http://www.w3.org/2000/svg"
   xmlns="http://www.w3.org/2000/svg"
   xmlns:sodipodi="http://sodipodi.sourceforge.net/DTD/sodipodi-0.dtd"
   xmlns:inkscape="http://www.inkscape.org/namespaces/inkscape"
   width="120.34737mm"
   height="117.425mm"
   viewBox="0 0 120.34737 117.425"
   version="1.1"
   id="svg8"
   inkscape:version="0.92.5 (2060ec1f9f, 2020-04-08)"
   sodipodi:docname="github-logo.svg">
  <defs
     id="defs2" />
  <sodipodi:namedview
     id="base"
     pagecolor="#333333"
     bordercolor="#666666"
     borderopacity="1.0"
     inkscape:pageopacity="0"
     inkscape:pageshadow="2"
     inkscape:zoom="0.49497475"
     inkscape:cx="504.08792"
     inkscape:cy="133.91066"
     inkscape:document-units="mm"
     inkscape:current-layer="layer1"
     showgrid="false"
     fit-margin-top="0"
     fit-margin-left="0"
     fit-margin-right="0"
     fit-margin-bottom="0" />
  <metadata
     id="metadata5">
    <rdf:RDF>
      <cc:Work
         rdf:about="">
        <dc:format>image/svg+xml</dc:format>
        <dc:type
           rdf:resource="http://purl.org/dc/dcmitype/StillImage" />
        <dc:title></dc:title>
      </cc:Work>
    </rdf:RDF>
  </metadata>
  <g
     inkscape:label="Layer 1"
     inkscape:groupmode="layer"
     id="layer1"
     transform="translate(-43.993845,-81.749961)">
    <path
       inkscape:connector-curvature="0"
       id="path23"
       d="M 82.09644,198.0144 C 63.1481,190.34304 49.61067,174.40256 45.22467,154.59748 c -1.68716,-7.61841 -1.63642,-17.57992 0.13134,-25.78642 4.36843,-20.27954 19.82443,-37.447331 39.65084,-44.042243 7.10138,-2.362147 13.04356,-3.200622 21.16666,-2.98673 9.44301,0.248647 16.50549,1.959887 24.73855,5.994151 14.38962,7.051033 25.22366,19.323852 30.26309,34.282072 3.75003,11.131 4.1758,23.02177 1.23988,34.62749 -3.66416,14.48448 -12.35577,26.76125 -24.86167,35.11674 -5.01016,3.3474 -13.14201,7.11265 -15.36129,7.11265 -0.48328,0 -1.15976,-0.22743 -1.50331,-0.5054 l -0.62462,-0.5054 -0.15836,-10.80554 c -0.13454,-9.18064 -0.2279,-11.04426 -0.6208,-12.39304 -0.51093,-1.75392 -1.80422,-4.50481 -2.45746,-5.22714 -0.23111,-0.25555 -0.37133,-0.5031 -0.31159,-0.55011 0.0598,-0.047 1.53738,-0.35837 3.28363,-0.69194 7.60142,-1.45201 12.56243,-3.89446 16.55218,-8.14912 3.29179,-3.51038 5.08725,-7.18801 6.23251,-12.76606 0.79275,-3.86107 1.07716,-9.35525 0.65057,-12.56771 -0.5723,-4.30983 -2.53996,-9.04754 -4.8506,-11.67921 l -0.82295,-0.93729 0.4811,-1.76154 c 0.99094,-3.62829 0.79429,-8.51248 -0.52106,-12.94175 -0.5522,-1.85944 -0.93831,-2.18125 -2.61708,-2.18125 -3.03045,0 -8.05444,1.82353 -12.75933,4.63119 l -2.45105,1.46267 -3.25444,-0.65126 c -8.24799,-1.65053 -15.99056,-1.65004 -24.24357,0.002 l -3.26206,0.6528 -1.89732,-1.18175 c -2.85957,-1.78108 -7.24664,-3.79175 -9.56937,-4.38581 -2.06654,-0.52853 -4.7684,-0.69458 -5.31907,-0.3269 -0.48089,0.3211 -0.83008,1.16261 -1.45836,3.51444 -0.81049,3.03391 -0.87224,8.48313 -0.1276,11.26017 l 0.50416,1.88022 -0.99209,1.29478 c -1.47376,1.9234 -3.49299,6.26458 -4.1712,8.9677 -0.5039,2.00842 -0.59538,3.06476 -0.58427,6.74687 0.0512,16.98483 8.12132,26.55383 24.78142,29.38424 0.98227,0.16688 1.78594,0.35867 1.78594,0.4262 0,0.0675 -0.28406,0.50179 -0.63124,0.96503 -1.18369,1.57936 -1.75166,2.95473 -2.37993,5.76315 -0.13225,0.59114 -0.44212,0.77668 -2.20935,1.32292 -2.82503,0.87318 -6.6527,0.87333 -8.87769,2.6e-4 -1.92247,-0.75429 -4.28161,-2.89895 -5.75482,-5.23161 -2.04278,-3.2345 -4.54124,-5.23759 -7.7529,-6.21573 -3.67541,-1.11938 -6.55279,0.22793 -5.05467,2.3668 0.22678,0.32376 1.10258,1.05741 1.94624,1.63033 2.7039,1.83618 4.5693,4.16201 6.55033,8.16713 1.9917,4.02668 3.78571,6.15907 6.43695,7.65107 2.66018,1.49703 5.00844,2.04921 8.73125,2.05311 1.81901,0.002 3.87283,-0.0836 4.56406,-0.1899 l 1.25677,-0.19338 v 5.43092 c 0,5.41339 -0.002,5.43302 -0.64943,6.08036 -0.99115,0.99115 -2.58262,0.8535 -5.96515,-0.51594 z"
       style="fill:#f9f9f9;stroke-width:1;fill-opacity:1" />
  </g>
</svg>
