<?xml version="1.0" encoding="UTF-8" standalone="no"?>
<!-- Created with Inkscape (http://www.inkscape.org/) -->

<svg
   xmlns:dc="http://purl.org/dc/elements/1.1/"
   xmlns:cc="http://creativecommons.org/ns#"
   xmlns:rdf="http://www.w3.org/1999/02/22-rdf-syntax-ns#"
   xmlns:svg="http://www.w3.org/2000/svg"
   xmlns="http://www.w3.org/2000/svg"
   xmlns:sodipodi="http://sodipodi.sourceforge.net/DTD/sodipodi-0.dtd"
   xmlns:inkscape="http://www.inkscape.org/namespaces/inkscape"
   width="26.458336mm"
   height="26.458332mm"
   viewBox="0 0 26.458336 26.458332"
   version="1.1"
   id="svg4657"
   inkscape:version="0.92.5 (2060ec1f9f, 2020-04-08)"
   sodipodi:docname="13d.svg">
  <defs
     id="defs4651" />
  <sodipodi:namedview
     id="base"
     pagecolor="#ffffff"
     bordercolor="#666666"
     borderopacity="1.0"
     inkscape:pageopacity="0.0"
     inkscape:pageshadow="2"
     inkscape:zoom="3.959798"
     inkscape:cx="106.33695"
     inkscape:cy="44.267615"
     inkscape:document-units="mm"
     inkscape:current-layer="layer1"
     showgrid="false"
     inkscape:snap-bbox="true"
     inkscape:snap-bbox-edge-midpoints="true"
     showguides="true"
     inkscape:snap-bbox-midpoints="true"
     fit-margin-top="0"
     fit-margin-left="0"
     fit-margin-right="0"
     fit-margin-bottom="0">
    <inkscape:grid
       type="xygrid"
       id="grid4705"
       originx="-0.13229167"
       originy="-1.1444092e-05" />
  </sodipodi:namedview>
  <metadata
     id="metadata4654">
    <rdf:RDF>
      <cc:Work
         rdf:about="">
        <dc:format>image/svg+xml</dc:format>
        <dc:type
           rdf:resource="http://purl.org/dc/dcmitype/StillImage" />
        <dc:title />
      </cc:Work>
    </rdf:RDF>
  </metadata>
  <g
     inkscape:label="Layer 1"
     inkscape:groupmode="layer"
     id="layer1"
     transform="translate(0,-270.54166)">
    <g
       id="g20">
      <rect
         ry="0"
         y="270.54166"
         x="1.506213e-15"
         height="26.458332"
         width="26.458336"
         id="rect4820"
         style="opacity:0;fill:#bcd35f;fill-rule:evenodd;stroke-width:0.26458335" />
      <g
         style="fill:#48484a;fill-opacity:1;stroke-width:15.56870365"
         transform="matrix(0.06423143,0,0,0.06423143,-8.4995984,274.33244)"
         id="g4818">
        <path
           inkscape:connector-curvature="0"
           style="fill:#48484a;fill-opacity:1;fill-rule:evenodd;stroke-width:15.56869984"
           d="m 1278.5723,5.3769531 c -11.8715,0 -21.4297,10.5734099 -21.4297,23.7070309 V 150.20117 l -73.0664,-87.664061 c -3.4983,-4.197176 -8.0635,-6.296875 -12.6289,-6.296875 -4.5656,0 -9.1307,2.099699 -12.6289,6.296875 -6.9967,8.394373 -6.9967,21.908366 0,30.302735 l 98.3242,117.966796 V 259.625 l -73.0664,-87.66406 c -3.4983,-4.19718 -8.0635,-6.29688 -12.6289,-6.29688 -4.5656,0 -9.1307,2.0997 -12.6289,6.29688 -6.9967,8.39437 -6.9967,21.90836 0,30.30273 l 98.3242,117.9668 v 470.29101 l -98.3242,117.9668 c -6.9967,8.39437 -6.9967,21.90837 0,30.30274 3.4982,4.19716 8.0633,6.29687 12.6289,6.29687 4.5654,0 9.1306,-2.09971 12.6289,-6.29687 l 73.0664,-87.66407 v 48.81836 l -98.3242,117.96679 c -6.9967,8.3944 -6.9967,21.9085 0,30.3027 3.4982,4.1972 8.0633,6.2969 12.6289,6.2969 4.5654,0 9.1306,-2.0997 12.6289,-6.2969 l 73.0664,-87.66402 v 121.11912 c 0,13.1336 9.5582,23.7071 21.4297,23.7071 11.8714,0 21.4277,-10.5735 21.4277,-23.7071 V 960.55273 l 73.0645,87.66207 c 3.4981,4.1972 8.0654,6.2969 12.6308,6.2969 4.5656,0 9.1307,-2.0997 12.6289,-6.2969 6.9968,-8.3942 6.9968,-21.9083 0,-30.3027 L 1300,899.94531 v -48.8164 l 73.0645,87.66211 c 3.4981,4.19716 8.0654,6.29687 12.6308,6.29687 4.5656,0 9.1307,-2.09971 12.6289,-6.29687 6.9968,-8.39437 6.9968,-21.90837 0,-30.30274 L 1300,790.52148 V 320.23047 l 98.3242,-117.9668 c 6.9968,-8.39437 6.9968,-21.90836 0,-30.30273 -3.4982,-4.19718 -8.0633,-6.29688 -12.6289,-6.29688 -4.5654,0 -9.1327,2.0997 -12.6308,6.29688 L 1300,259.62305 v -48.81641 l 98.3242,-117.966796 c 6.9968,-8.394369 6.9968,-21.908362 0,-30.302735 -3.4982,-4.197176 -8.0633,-6.296875 -12.6289,-6.296875 -4.5654,0 -9.1327,2.099699 -12.6308,6.296875 L 1300,150.19922 V 29.083984 c 0,-13.133621 -9.5563,-23.7070309 -21.4277,-23.7070309 z"
           transform="scale(0.26458333)"
           id="rect4697" />
        <path
           id="path4808"
           d="m 235.39007,44.044539 c -2.22102,2.221023 -2.03109,5.987419 0.42606,8.44457 l 22.65966,22.659653 -30.07085,-2.731057 c -1.43974,-0.130751 -2.68666,0.330516 -3.5408,1.18465 -0.85417,0.854173 -1.31542,2.101081 -1.18465,3.540799 0.26149,2.879495 2.7898,5.40781 5.6693,5.669298 l 40.46559,3.674907 9.13337,9.133362 -30.07085,-2.731057 c -1.43974,-0.130752 -2.68667,0.330515 -3.5408,1.184649 -0.85417,0.854172 -1.31542,2.101081 -1.18465,3.540799 0.26149,2.879498 2.7898,5.407808 5.6693,5.669298 l 40.46559,3.67491 87.98612,87.98612 3.67491,40.46559 c 0.26149,2.8795 2.7898,5.40781 5.6693,5.6693 1.43971,0.13077 2.68662,-0.33048 3.54079,-1.18465 0.85414,-0.85414 1.3154,-2.10107 1.18466,-3.5408 l -2.73106,-30.07085 9.13336,9.13336 3.6749,40.4656 c 0.2615,2.8795 2.78983,5.40783 5.6693,5.66929 1.43972,0.13077 2.68663,-0.33047 3.5408,-1.18465 0.85413,-0.85413 1.3154,-2.10106 1.18464,-3.5408 l -2.73105,-30.07084 22.66002,22.66002 c 2.45715,2.45714 6.22356,2.64709 8.44458,0.42607 2.22101,-2.221 2.0307,-5.98706 -0.42645,-8.44421 l -22.65965,-22.65965 30.07012,2.73104 c 1.43971,0.1308 2.68703,-0.33086 3.54116,-1.185 0.85417,-0.85417 1.31542,-2.10108 1.18465,-3.5408 -0.26144,-2.87948 -2.78978,-5.40782 -5.66929,-5.66929 l -40.4656,-3.67491 -9.13299,-9.133 30.07012,2.73105 c 1.4397,0.13079 2.68702,-0.33087 3.54116,-1.185 0.85417,-0.85418 1.31542,-2.10109 1.18465,-3.5408 -0.26147,-2.87951 -2.78979,-5.40783 -5.6693,-5.6693 l -40.4656,-3.67491 -87.98611,-87.986116 -3.67491,-40.465595 c -0.26147,-2.879514 -2.78979,-5.407828 -5.6693,-5.669298 -1.43972,-0.130771 -2.68663,0.330478 -3.5408,1.18465 -0.85413,0.854134 -1.31579,2.101454 -1.185,3.541154 l 2.73104,30.070127 -9.13299,-9.132997 -3.67491,-40.465594 c -0.26147,-2.879513 -2.78978,-5.407828 -5.6693,-5.669298 -1.43972,-0.130771 -2.68662,0.330478 -3.5408,1.18465 -0.85413,0.854134 -1.31579,2.101454 -1.185,3.541153 l 2.73105,30.070128 -22.65929,-22.659288 c -2.45715,-2.457152 -6.22319,-2.647442 -8.4442,-0.426437 z"
           style="fill:#48484a;fill-opacity:1;fill-rule:evenodd;stroke-width:4.11921883"
           inkscape:connector-curvature="0" />
        <path
           inkscape:connector-curvature="0"
           style="fill:#48484a;fill-opacity:1;fill-rule:evenodd;stroke-width:4.11921883"
           d="m 192.7679,146.94304 c 0,3.141 2.79754,5.66995 6.27248,5.66995 l 32.04559,-1e-5 -23.19445,19.33215 c -1.1105,0.9256 -1.66604,2.13347 -1.66605,3.3414 0,1.20798 0.55555,2.41583 1.66605,3.3414 2.22101,1.85121 5.79659,1.85121 8.0176,0 l 31.21204,-26.01494 12.91653,-1e-5 -23.19445,19.33215 c -1.1105,0.9256 -1.66605,2.13348 -1.66605,3.3414 0,1.20798 0.55555,2.41583 1.66605,3.3414 2.22102,1.85121 5.79659,1.85121 8.0176,0 l 31.21205,-26.01494 h 124.43116 l 31.21205,26.01494 c 2.22102,1.85121 5.79659,1.85121 8.0176,0 1.1105,-0.92556 1.66604,-2.13342 1.66604,-3.34139 0,-1.20794 -0.55555,-2.41581 -1.66604,-3.34141 l -23.19445,-19.33215 h 12.91652 l 31.21205,26.01495 c 2.22102,1.85121 5.79662,1.85121 8.01759,0 1.1105,-0.92557 1.66606,-2.13342 1.66605,-3.3414 0,-1.20792 -0.55555,-2.4158 -1.66606,-3.34139 l -23.19444,-19.33215 h 32.04611 c 3.47493,-1e-5 6.2725,-2.52895 6.2725,-5.66995 10e-6,-3.14097 -2.79757,-5.66941 -6.27251,-5.66941 h -32.04558 l 23.19392,-19.33165 c 1.11052,-0.92554 1.66607,-2.13397 1.66606,-3.3419 0,-1.20798 -0.55555,-2.41583 -1.66605,-3.3414 -2.22097,-1.85123 -5.79658,-1.85123 -8.01759,0 l -31.21205,26.01495 -12.91601,-1e-5 23.19393,-19.33164 c 1.11051,-0.92554 1.66605,-2.13397 1.66606,-3.3419 -10e-6,-1.20798 -0.55555,-2.41583 -1.66605,-3.3414 -2.22101,-1.85123 -5.79659,-1.85123 -8.0176,0 l -31.21205,26.01495 H 276.07289 l -31.21205,-26.01495 c -2.22101,-1.85123 -5.79659,-1.85123 -8.0176,1e-5 -1.1105,0.92556 -1.66605,2.13341 -1.66605,3.34139 0,1.20793 0.55555,2.41636 1.66605,3.3419 l 23.19393,19.33165 h -12.916 l -31.21205,-26.01494 c -2.22101,-1.85124 -5.79658,-1.85124 -8.0176,0 -1.11051,0.92556 -1.66604,2.13341 -1.66605,3.34139 0,1.20793 0.55555,2.41636 1.66605,3.3419 l 23.19394,19.33165 h -32.04508 c -3.47493,0 -6.27248,2.52843 -6.27248,5.66941 z"
           id="path4810" />
        <path
           id="path4812"
           d="m 235.38978,249.84188 c 2.22103,2.22103 5.98742,2.03111 8.44458,-0.42605 l 22.65964,-22.65966 -2.73105,30.07085 c -0.13075,1.43974 0.33052,2.68666 1.18465,3.5408 0.85417,0.85417 2.10108,1.31542 3.5408,1.18465 2.87949,-0.26149 5.40781,-2.7898 5.6693,-5.6693 l 3.6749,-40.46558 9.13336,-9.13338 -2.73106,30.07085 c -0.13074,1.43974 0.33053,2.68667 1.18465,3.5408 0.85418,0.85417 2.10109,1.31542 3.54081,1.18465 2.8795,-0.26149 5.40781,-2.7898 5.6693,-5.6693 l 3.67491,-40.46559 87.98611,-87.98612 40.4656,-3.67491 c 2.8795,-0.26149 5.40781,-2.7898 5.6693,-5.669297 0.13077,-1.439712 -0.33049,-2.686624 -1.18466,-3.540787 -0.85414,-0.854143 -2.10106,-1.315403 -3.5408,-1.184666 l -30.07084,2.731059 9.13335,-9.133359 40.4656,-3.674905 c 2.87951,-0.261495 5.40784,-2.789826 5.6693,-5.669292 0.13076,-1.439719 -0.33048,-2.686638 -1.18465,-3.540802 -0.85413,-0.854128 -2.10107,-1.315395 -3.54081,-1.184637 l -30.07084,2.731051 22.66002,-22.660021 c 2.45714,-2.457154 2.64709,-6.223565 0.42607,-8.444588 -2.22099,-2.221008 -5.98706,-2.030697 -8.44421,0.426456 L 410.08346,67.130449 412.8145,37.06033 c 0.1308,-1.439712 -0.33086,-2.687034 -1.185,-3.541162 -0.85417,-0.854171 -2.10108,-1.315417 -3.5408,-1.184652 -2.87948,0.261446 -5.40782,2.789784 -5.66929,5.669293 l -3.67491,40.465599 -9.133,9.132992 2.73105,-30.070119 c 0.13079,-1.439705 -0.33087,-2.68702 -1.185,-3.541163 -0.85418,-0.854163 -2.10108,-1.315416 -3.5408,-1.184651 -2.87951,0.261474 -5.40783,2.789791 -5.6693,5.669299 l -3.6749,40.4656 -87.98612,87.986114 -40.4656,3.67491 c -2.87951,0.26147 -5.40783,2.78979 -5.66929,5.6693 -0.13078,1.43972 0.33047,2.68663 1.18464,3.5408 0.85414,0.85413 2.10146,1.31579 3.54116,1.185 l 30.07012,-2.73104 -9.13299,9.13299 -40.46559,3.67491 c -2.87952,0.26147 -5.40783,2.78978 -5.6693,5.6693 -0.13078,1.43972 0.33048,2.68662 1.18464,3.5408 0.85414,0.85413 2.10146,1.31579 3.54116,1.185 l 30.07013,-2.73105 -22.65929,22.65929 c -2.45715,2.45715 -2.64744,6.22319 -0.42644,8.44419 z"
           style="fill:#48484a;fill-opacity:1;fill-rule:evenodd;stroke-width:4.11921883"
           inkscape:connector-curvature="0" />
      </g>
    </g>
  </g>
</svg>
